<?xml version="1.0" encoding="utf-8"?>
<!-- Generator: Adobe Illustrator 21.0.2, SVG Export Plug-In . SVG Version: 6.00 Build 0)  -->
<svg version="1.1" id="Layer_1" xmlns="http://www.w3.org/2000/svg" xmlns:xlink="http://www.w3.org/1999/xlink" x="0px" y="0px"
	 viewBox="0 0 256 256" style="enable-background:new 0 0 256 256;" xml:space="preserve">
<style type="text/css">
	.st0{fill:#54328F;}
	.st1{fill:url(#SVGID_1_);}
	.st2{fill:#FFFFFF;}
</style>
<path class="st0" d="M249.2,256H6.8c-3.8,0-6.8-3.1-6.8-6.8V6.8C0,3.1,3.1,0,6.8,0h242.3c3.8,0,6.8,3.1,6.8,6.8v242.3
	C256,252.9,252.9,256,249.2,256z"/>
<linearGradient id="SVGID_1_" gradientUnits="userSpaceOnUse" x1="128" y1="0" x2="128" y2="256">
	<stop  offset="0" style="stop-color:#8E6EFE;stop-opacity:0.3"/>
	<stop  offset="1" style="stop-color:#361F6D;stop-opacity:0.2"/>
</linearGradient>
<path class="st1" d="M249.1,256H6.9c-3.8,0-6.9-3.1-6.9-6.9V6.9C0,3.1,3.1,0,6.9,0h242.2c3.8,0,6.9,3.1,6.9,6.9v242.2
	C256,252.9,252.9,256,249.1,256z"/>
<path class="st2" d="M140.2,212.8c-17.1,0-32.2-3.4-45.3-10.1c-13.2-6.7-23.5-16.4-31-29.2c-7.5-12.7-11.3-27.6-11.3-44.7
	c0-16.2,3.6-30.7,10.9-43.7C70.9,72.3,81.3,62,94.9,54.5c13.6-7.5,29.3-11.3,47-11.3c9,0,18.1,1.2,27.4,3.6c9.3,2.4,17.3,5.6,24,9.6
	l-5.4,28c-15.8-7.8-30.9-11.7-45.5-11.7c-10.7,0-20.2,2.2-28.6,6.7c-8.4,4.5-15,10.9-19.7,19.3c-4.8,8.4-7.2,18.2-7.2,29.5
	c0,16.9,5.1,30.3,15.2,40.2c10.1,9.9,23.8,14.8,41,14.8c7.5,0,15.5-1.1,24.1-3.3c8.5-2.2,16.5-5.2,24.1-9.1l3.5,28.6
	c-7.4,4.2-15.8,7.4-25.4,9.8C159.7,211.6,150,212.8,140.2,212.8"/>
</svg>
